# xmcd
#
# Track frame offsets:
#	150
#	36720
#	86160
#	201352
#	228529
#	253565
#	300775
#
# Disc length: 4293 seconds
#
# Revision: 1
# Processed by: cddbd v1.5.2PL0 Copyright (c) Steve Scherf et al.
# Submitted via: audiograbber 1.83.01
#
DISCID=5a10c307
DTITLE=Grateful Dead - 95-04-01 The Pyramid, Memphis TN
DYEAR=1900
DGENRE=
TTITLE0=Saint Of Circumstance
TTITLE1=Eyes Of The World
TTITLE2=Drums > Space
TTITLE3=The Wheel
TTITLE4=All Along The Watchtower
TTITLE5=Standing On The Moon
TTITLE6=One More Saturday Night
EXTD=
EXTT0=
EXTT1=
EXTT2=
EXTT3=
EXTT4=
EXTT5=
EXTT6=
PLAYORDER=
